<mxfile host="app.diagrams.net" agent="Mozilla/5.0 (Windows NT 10.0; Win64; x64) AppleWebKit/537.36 (KHTML, like Gecko) Chrome/132.0.0.0 Safari/537.36" version="26.0.10">
  <diagram name="Страница — 1" id="NGUn5usP4DfPKilQnzFJ">
    <mxGraphModel dx="1290" dy="522" grid="1" gridSize="10" guides="1" tooltips="1" connect="1" arrows="1" fold="1" page="1" pageScale="1" pageWidth="1200" pageHeight="1600" math="0" shadow="0">
      <root>
        <mxCell id="0" />
        <mxCell id="1" parent="0" />
        <mxCell id="YFT1d2Bk_ttAh_a-eo_Q-21" value="" style="rounded=0;whiteSpace=wrap;html=1;" vertex="1" parent="1">
          <mxGeometry x="480" y="800" width="120" height="60" as="geometry" />
        </mxCell>
        <mxCell id="YFT1d2Bk_ttAh_a-eo_Q-13" value="" style="edgeStyle=orthogonalEdgeStyle;rounded=0;orthogonalLoop=1;jettySize=auto;html=1;" edge="1" parent="1" source="B-x-5GiSATRNEpWxe27x-1" target="YFT1d2Bk_ttAh_a-eo_Q-2">
          <mxGeometry relative="1" as="geometry" />
        </mxCell>
        <mxCell id="B-x-5GiSATRNEpWxe27x-1" value="начало" style="ellipse;whiteSpace=wrap;html=1;" parent="1" vertex="1">
          <mxGeometry x="565" y="40" width="120" height="80" as="geometry" />
        </mxCell>
        <mxCell id="YFT1d2Bk_ttAh_a-eo_Q-1" value="a=из координат в функции составляем отезок, делим на 4 части, из отрезков, равной 1/4 начального,строим координаты прямых кривой,начальная и конечная точки которого равны началу и концу соответственно начального отрезка" style="rounded=0;whiteSpace=wrap;html=1;" vertex="1" parent="1">
          <mxGeometry x="40" y="40" width="180" height="120" as="geometry" />
        </mxCell>
        <mxCell id="YFT1d2Bk_ttAh_a-eo_Q-2" value="&lt;font style=&quot;font-size: 18px;&quot;&gt;Вызов&amp;nbsp;fractal(x1,y1,&lt;/font&gt;&lt;div&gt;&lt;font size=&quot;3&quot;&gt;x2,y2,1)&lt;/font&gt;&lt;/div&gt;&lt;div&gt;&lt;font size=&quot;3&quot;&gt;a&lt;/font&gt;&lt;/div&gt;&lt;div&gt;&lt;div&gt;&lt;font size=&quot;3&quot;&gt;fractal(x1,y1,x3,y3,1-1);&lt;/font&gt;&lt;/div&gt;&lt;div&gt;&lt;font size=&quot;3&quot;&gt;&amp;nbsp; &amp;nbsp; fractal(x3,y3,x4,y4,1-1);&lt;/font&gt;&lt;/div&gt;&lt;div&gt;&lt;font size=&quot;3&quot;&gt;&amp;nbsp; &amp;nbsp; fractal(x4,y4,x5,y5,1-1);&lt;/font&gt;&lt;/div&gt;&lt;div&gt;&lt;font size=&quot;3&quot;&gt;&amp;nbsp; &amp;nbsp; fractal(x5,y5,x6,y6,1-1);&lt;/font&gt;&lt;/div&gt;&lt;div&gt;&lt;font size=&quot;3&quot;&gt;&amp;nbsp; &amp;nbsp; fractal(x6,y6,x7,y7,1-1);&lt;/font&gt;&lt;/div&gt;&lt;div&gt;&lt;font size=&quot;3&quot;&gt;&amp;nbsp; &amp;nbsp; fractal(x7,y7,x8,y8,1-1);&lt;/font&gt;&lt;/div&gt;&lt;div&gt;&lt;font size=&quot;3&quot;&gt;&amp;nbsp; &amp;nbsp; fractal(x8,y8,x9,y9,1-1);&lt;/font&gt;&lt;/div&gt;&lt;div&gt;&lt;font size=&quot;3&quot;&gt;&amp;nbsp; &amp;nbsp; fractal(x9,y9,x2,y2,1-1);&lt;/font&gt;&lt;/div&gt;&lt;/div&gt;" style="rounded=0;whiteSpace=wrap;html=1;" vertex="1" parent="1">
          <mxGeometry x="510" y="160" width="230" height="280" as="geometry" />
        </mxCell>
        <mxCell id="YFT1d2Bk_ttAh_a-eo_Q-3" value="&lt;font style=&quot;font-size: 12px;&quot;&gt;fractal(x1,y1,x3,y3,0)&lt;/font&gt;&lt;div&gt;&lt;font style=&quot;font-size: 12px;&quot;&gt;depth = 0&lt;/font&gt;&lt;/div&gt;&lt;div&gt;&lt;font style=&quot;font-size: 12px;&quot;&gt;Вызов функции не требется&lt;/font&gt;&lt;/div&gt;&lt;div&gt;line(round(x1),&lt;/div&gt;&lt;div&gt;round(y1),&lt;/div&gt;&lt;div&gt;round(x3),&lt;/div&gt;&lt;div&gt;round(y3))&lt;/div&gt;" style="rounded=0;whiteSpace=wrap;html=1;" vertex="1" parent="1">
          <mxGeometry x="30" y="730" width="120" height="140" as="geometry" />
        </mxCell>
        <mxCell id="YFT1d2Bk_ttAh_a-eo_Q-24" style="edgeStyle=orthogonalEdgeStyle;rounded=0;orthogonalLoop=1;jettySize=auto;html=1;" edge="1" parent="1" source="YFT1d2Bk_ttAh_a-eo_Q-4">
          <mxGeometry relative="1" as="geometry">
            <mxPoint x="90" y="920" as="targetPoint" />
            <Array as="points">
              <mxPoint x="240" y="890" />
              <mxPoint x="91" y="890" />
            </Array>
          </mxGeometry>
        </mxCell>
        <mxCell id="YFT1d2Bk_ttAh_a-eo_Q-4" value="&lt;font style=&quot;font-size: 12px;&quot;&gt;fractal(x4,y4,x5,y5,0)&lt;/font&gt;&lt;div&gt;&lt;div&gt;depth = 0&lt;/div&gt;&lt;div&gt;Вызов функции не требется&lt;/div&gt;&lt;div&gt;line(round(x4),&lt;/div&gt;&lt;div&gt;round(y4),&lt;/div&gt;&lt;div&gt;round(x5),&lt;/div&gt;&lt;div&gt;round(y5))&lt;/div&gt;&lt;div&gt;&lt;br&gt;&lt;/div&gt;&lt;/div&gt;" style="rounded=0;whiteSpace=wrap;html=1;" vertex="1" parent="1">
          <mxGeometry x="180" y="730" width="120" height="140" as="geometry" />
        </mxCell>
        <mxCell id="YFT1d2Bk_ttAh_a-eo_Q-25" style="edgeStyle=orthogonalEdgeStyle;rounded=0;orthogonalLoop=1;jettySize=auto;html=1;" edge="1" parent="1" source="YFT1d2Bk_ttAh_a-eo_Q-5">
          <mxGeometry relative="1" as="geometry">
            <mxPoint x="90" y="920" as="targetPoint" />
            <Array as="points">
              <mxPoint x="390" y="890" />
              <mxPoint x="91" y="890" />
            </Array>
          </mxGeometry>
        </mxCell>
        <mxCell id="YFT1d2Bk_ttAh_a-eo_Q-5" value="&lt;font style=&quot;font-size: 12px;&quot;&gt;fractal(x6,y6,x7,y7,0)&lt;/font&gt;&lt;div&gt;&lt;font style=&quot;font-size: 12px;&quot;&gt;&lt;div&gt;depth = 0&lt;/div&gt;&lt;div&gt;Вызов функции не требется&lt;/div&gt;&lt;div&gt;line(round(x6),&lt;/div&gt;&lt;div&gt;round(y6),&lt;/div&gt;&lt;div&gt;round(x7),&lt;/div&gt;&lt;div&gt;round(y7))&lt;/div&gt;&lt;/font&gt;&lt;/div&gt;" style="rounded=0;whiteSpace=wrap;html=1;" vertex="1" parent="1">
          <mxGeometry x="330" y="730" width="120" height="140" as="geometry" />
        </mxCell>
        <mxCell id="YFT1d2Bk_ttAh_a-eo_Q-26" style="edgeStyle=orthogonalEdgeStyle;rounded=0;orthogonalLoop=1;jettySize=auto;html=1;entryX=0.5;entryY=0;entryDx=0;entryDy=0;" edge="1" parent="1" source="YFT1d2Bk_ttAh_a-eo_Q-6" target="YFT1d2Bk_ttAh_a-eo_Q-23">
          <mxGeometry relative="1" as="geometry">
            <Array as="points">
              <mxPoint x="540" y="890" />
              <mxPoint x="90" y="890" />
            </Array>
          </mxGeometry>
        </mxCell>
        <mxCell id="YFT1d2Bk_ttAh_a-eo_Q-6" value="&lt;font style=&quot;font-size: 12px;&quot;&gt;fractal(x8,y8,x9,y9,0)&lt;/font&gt;&lt;div&gt;&lt;font style=&quot;font-size: 12px;&quot;&gt;&lt;div&gt;depth = 0&lt;/div&gt;&lt;div&gt;Вызов функции не требется&lt;/div&gt;&lt;div&gt;line(round(x8),&lt;/div&gt;&lt;div&gt;round(y8),&lt;/div&gt;&lt;div&gt;round(x9),&lt;/div&gt;&lt;div&gt;round(y9))&lt;/div&gt;&lt;/font&gt;&lt;/div&gt;" style="rounded=0;whiteSpace=wrap;html=1;" vertex="1" parent="1">
          <mxGeometry x="480" y="730" width="120" height="140" as="geometry" />
        </mxCell>
        <mxCell id="YFT1d2Bk_ttAh_a-eo_Q-27" style="edgeStyle=orthogonalEdgeStyle;rounded=0;orthogonalLoop=1;jettySize=auto;html=1;entryX=0.5;entryY=0;entryDx=0;entryDy=0;" edge="1" parent="1" source="YFT1d2Bk_ttAh_a-eo_Q-7" target="YFT1d2Bk_ttAh_a-eo_Q-23">
          <mxGeometry relative="1" as="geometry">
            <Array as="points">
              <mxPoint x="690" y="890" />
              <mxPoint x="90" y="890" />
            </Array>
          </mxGeometry>
        </mxCell>
        <mxCell id="YFT1d2Bk_ttAh_a-eo_Q-7" value="&lt;font style=&quot;font-size: 12px;&quot;&gt;fractal(x9,y9,x2,y2,0);&lt;/font&gt;&lt;div&gt;&lt;div&gt;depth = 0&lt;/div&gt;&lt;div&gt;Вызов функции не требется&lt;/div&gt;&lt;div&gt;line(round(x9),&lt;/div&gt;&lt;div&gt;round(y9),&lt;/div&gt;&lt;div&gt;round(x2),&lt;/div&gt;&lt;div&gt;round(y2))&lt;/div&gt;&lt;div&gt;&lt;br&gt;&lt;/div&gt;&lt;/div&gt;" style="rounded=0;whiteSpace=wrap;html=1;" vertex="1" parent="1">
          <mxGeometry x="630" y="730" width="120" height="140" as="geometry" />
        </mxCell>
        <mxCell id="YFT1d2Bk_ttAh_a-eo_Q-28" style="edgeStyle=orthogonalEdgeStyle;rounded=0;orthogonalLoop=1;jettySize=auto;html=1;entryX=0.5;entryY=0;entryDx=0;entryDy=0;" edge="1" parent="1" source="YFT1d2Bk_ttAh_a-eo_Q-8" target="YFT1d2Bk_ttAh_a-eo_Q-23">
          <mxGeometry relative="1" as="geometry">
            <Array as="points">
              <mxPoint x="840" y="890" />
              <mxPoint x="90" y="890" />
            </Array>
          </mxGeometry>
        </mxCell>
        <mxCell id="YFT1d2Bk_ttAh_a-eo_Q-8" value="&lt;font style=&quot;font-size: 12px;&quot;&gt;fractal(x7,y7,x8,y8,0)&lt;/font&gt;&lt;div&gt;&lt;font style=&quot;font-size: 12px;&quot;&gt;&lt;div&gt;depth = 0&lt;/div&gt;&lt;div&gt;Вызов функции не требется&lt;/div&gt;&lt;div&gt;line(round(x7),&lt;/div&gt;&lt;div&gt;round(y7),&lt;/div&gt;&lt;div&gt;round(x8),&lt;/div&gt;&lt;div&gt;round(y8))&lt;/div&gt;&lt;/font&gt;&lt;/div&gt;" style="rounded=0;whiteSpace=wrap;html=1;" vertex="1" parent="1">
          <mxGeometry x="780" y="730" width="120" height="140" as="geometry" />
        </mxCell>
        <mxCell id="YFT1d2Bk_ttAh_a-eo_Q-29" style="edgeStyle=orthogonalEdgeStyle;rounded=0;orthogonalLoop=1;jettySize=auto;html=1;" edge="1" parent="1" source="YFT1d2Bk_ttAh_a-eo_Q-9">
          <mxGeometry relative="1" as="geometry">
            <mxPoint x="90" y="930" as="targetPoint" />
            <Array as="points">
              <mxPoint x="990" y="890" />
              <mxPoint x="91" y="890" />
            </Array>
          </mxGeometry>
        </mxCell>
        <mxCell id="YFT1d2Bk_ttAh_a-eo_Q-9" value="&lt;font style=&quot;font-size: 12px;&quot;&gt;fractal(x5,y5,x6,y6,0)&lt;/font&gt;&lt;div&gt;&lt;font style=&quot;font-size: 12px;&quot;&gt;&lt;div&gt;depth = 0&lt;/div&gt;&lt;div&gt;Вызов функции не требется&lt;/div&gt;&lt;div&gt;line(round(x5),&lt;/div&gt;&lt;div&gt;round(y5),&lt;/div&gt;&lt;div&gt;round(x6),&lt;/div&gt;&lt;div&gt;round(y6))&lt;/div&gt;&lt;/font&gt;&lt;/div&gt;" style="rounded=0;whiteSpace=wrap;html=1;" vertex="1" parent="1">
          <mxGeometry x="930" y="730" width="120" height="140" as="geometry" />
        </mxCell>
        <mxCell id="YFT1d2Bk_ttAh_a-eo_Q-30" style="edgeStyle=orthogonalEdgeStyle;rounded=0;orthogonalLoop=1;jettySize=auto;html=1;" edge="1" parent="1" source="YFT1d2Bk_ttAh_a-eo_Q-10">
          <mxGeometry relative="1" as="geometry">
            <mxPoint x="90" y="920" as="targetPoint" />
            <Array as="points">
              <mxPoint x="1140" y="890" />
              <mxPoint x="91" y="890" />
            </Array>
          </mxGeometry>
        </mxCell>
        <mxCell id="YFT1d2Bk_ttAh_a-eo_Q-10" value="&lt;font style=&quot;font-size: 12px;&quot;&gt;fractal(x3,y3,x4,y4,0)&lt;/font&gt;&lt;div&gt;&lt;font style=&quot;font-size: 12px;&quot;&gt;&lt;div&gt;depth = 0&lt;/div&gt;&lt;div&gt;Вызов функции не требется&lt;/div&gt;&lt;div&gt;line(round(x3),&lt;/div&gt;&lt;div&gt;round(y3),&lt;/div&gt;&lt;div&gt;round(x4),&lt;/div&gt;&lt;div&gt;round(y4))&lt;/div&gt;&lt;/font&gt;&lt;/div&gt;" style="rounded=0;whiteSpace=wrap;html=1;" vertex="1" parent="1">
          <mxGeometry x="1080" y="730" width="120" height="140" as="geometry" />
        </mxCell>
        <mxCell id="YFT1d2Bk_ttAh_a-eo_Q-11" value="" style="endArrow=classic;html=1;rounded=0;entryX=0.5;entryY=0;entryDx=0;entryDy=0;" edge="1" parent="1" target="YFT1d2Bk_ttAh_a-eo_Q-3">
          <mxGeometry width="50" height="50" relative="1" as="geometry">
            <mxPoint x="510" y="240" as="sourcePoint" />
            <mxPoint x="410" y="250" as="targetPoint" />
            <Array as="points">
              <mxPoint x="90" y="240" />
              <mxPoint x="90" y="400" />
            </Array>
          </mxGeometry>
        </mxCell>
        <mxCell id="YFT1d2Bk_ttAh_a-eo_Q-14" value="" style="endArrow=classic;html=1;rounded=0;entryX=0.5;entryY=0;entryDx=0;entryDy=0;exitX=1.002;exitY=0.424;exitDx=0;exitDy=0;exitPerimeter=0;" edge="1" parent="1" source="YFT1d2Bk_ttAh_a-eo_Q-2" target="YFT1d2Bk_ttAh_a-eo_Q-10">
          <mxGeometry width="50" height="50" relative="1" as="geometry">
            <mxPoint x="740" y="290" as="sourcePoint" />
            <mxPoint x="790" y="240" as="targetPoint" />
            <Array as="points">
              <mxPoint x="910" y="280" />
              <mxPoint x="1070" y="280" />
              <mxPoint x="1100" y="280" />
              <mxPoint x="1140" y="280" />
              <mxPoint x="1140" y="430" />
            </Array>
          </mxGeometry>
        </mxCell>
        <mxCell id="YFT1d2Bk_ttAh_a-eo_Q-15" value="" style="endArrow=classic;html=1;rounded=0;entryX=0.5;entryY=0;entryDx=0;entryDy=0;exitX=0;exitY=0.5;exitDx=0;exitDy=0;" edge="1" parent="1" source="YFT1d2Bk_ttAh_a-eo_Q-2" target="YFT1d2Bk_ttAh_a-eo_Q-4">
          <mxGeometry width="50" height="50" relative="1" as="geometry">
            <mxPoint x="510" y="320" as="sourcePoint" />
            <mxPoint x="560" y="270" as="targetPoint" />
            <Array as="points">
              <mxPoint x="240" y="300" />
            </Array>
          </mxGeometry>
        </mxCell>
        <mxCell id="YFT1d2Bk_ttAh_a-eo_Q-16" value="" style="endArrow=classic;html=1;rounded=0;entryX=0.5;entryY=0;entryDx=0;entryDy=0;" edge="1" parent="1" target="YFT1d2Bk_ttAh_a-eo_Q-9">
          <mxGeometry width="50" height="50" relative="1" as="geometry">
            <mxPoint x="740" y="320" as="sourcePoint" />
            <mxPoint x="790" y="270" as="targetPoint" />
            <Array as="points">
              <mxPoint x="910" y="320" />
              <mxPoint x="990" y="320" />
            </Array>
          </mxGeometry>
        </mxCell>
        <mxCell id="YFT1d2Bk_ttAh_a-eo_Q-17" value="" style="endArrow=classic;html=1;rounded=0;entryX=0.5;entryY=0;entryDx=0;entryDy=0;" edge="1" parent="1" target="YFT1d2Bk_ttAh_a-eo_Q-5">
          <mxGeometry width="50" height="50" relative="1" as="geometry">
            <mxPoint x="510" y="340" as="sourcePoint" />
            <mxPoint x="560" y="290" as="targetPoint" />
            <Array as="points">
              <mxPoint x="390" y="340" />
              <mxPoint x="390" y="390" />
              <mxPoint x="390" y="440" />
            </Array>
          </mxGeometry>
        </mxCell>
        <mxCell id="YFT1d2Bk_ttAh_a-eo_Q-18" value="" style="endArrow=classic;html=1;rounded=0;entryX=0.5;entryY=0;entryDx=0;entryDy=0;" edge="1" parent="1" target="YFT1d2Bk_ttAh_a-eo_Q-8">
          <mxGeometry width="50" height="50" relative="1" as="geometry">
            <mxPoint x="740" y="360" as="sourcePoint" />
            <mxPoint x="790" y="310" as="targetPoint" />
            <Array as="points">
              <mxPoint x="760" y="360" />
              <mxPoint x="840" y="360" />
            </Array>
          </mxGeometry>
        </mxCell>
        <mxCell id="YFT1d2Bk_ttAh_a-eo_Q-19" value="" style="endArrow=classic;html=1;rounded=0;entryX=0.5;entryY=0;entryDx=0;entryDy=0;" edge="1" parent="1" target="YFT1d2Bk_ttAh_a-eo_Q-6">
          <mxGeometry width="50" height="50" relative="1" as="geometry">
            <mxPoint x="510" y="380" as="sourcePoint" />
            <mxPoint x="560" y="330" as="targetPoint" />
            <Array as="points">
              <mxPoint x="490" y="380" />
              <mxPoint x="490" y="520" />
              <mxPoint x="540" y="520" />
            </Array>
          </mxGeometry>
        </mxCell>
        <mxCell id="YFT1d2Bk_ttAh_a-eo_Q-20" value="" style="endArrow=classic;html=1;rounded=0;entryX=0.5;entryY=0;entryDx=0;entryDy=0;" edge="1" parent="1" target="YFT1d2Bk_ttAh_a-eo_Q-7">
          <mxGeometry width="50" height="50" relative="1" as="geometry">
            <mxPoint x="740" y="400" as="sourcePoint" />
            <mxPoint x="790" y="350" as="targetPoint" />
            <Array as="points">
              <mxPoint x="750" y="400" />
              <mxPoint x="750" y="480" />
              <mxPoint x="690" y="480" />
              <mxPoint x="690" y="500" />
            </Array>
          </mxGeometry>
        </mxCell>
        <mxCell id="YFT1d2Bk_ttAh_a-eo_Q-22" value="" style="endArrow=classic;html=1;rounded=0;entryX=0.5;entryY=0;entryDx=0;entryDy=0;" edge="1" parent="1" target="YFT1d2Bk_ttAh_a-eo_Q-23">
          <mxGeometry width="50" height="50" relative="1" as="geometry">
            <mxPoint x="90" y="870" as="sourcePoint" />
            <mxPoint x="140" y="820" as="targetPoint" />
          </mxGeometry>
        </mxCell>
        <mxCell id="YFT1d2Bk_ttAh_a-eo_Q-31" style="edgeStyle=orthogonalEdgeStyle;rounded=0;orthogonalLoop=1;jettySize=auto;html=1;entryX=-0.007;entryY=0.139;entryDx=0;entryDy=0;entryPerimeter=0;" edge="1" parent="1" source="YFT1d2Bk_ttAh_a-eo_Q-23" target="YFT1d2Bk_ttAh_a-eo_Q-2">
          <mxGeometry relative="1" as="geometry">
            <mxPoint x="10" y="200" as="targetPoint" />
            <Array as="points">
              <mxPoint x="90" y="1020" />
              <mxPoint x="10" y="1020" />
              <mxPoint x="10" y="199" />
            </Array>
          </mxGeometry>
        </mxCell>
        <mxCell id="YFT1d2Bk_ttAh_a-eo_Q-23" value="" style="rounded=0;whiteSpace=wrap;html=1;" vertex="1" parent="1">
          <mxGeometry x="30" y="920" width="120" height="60" as="geometry" />
        </mxCell>
        <mxCell id="YFT1d2Bk_ttAh_a-eo_Q-32" value="Конец" style="ellipse;whiteSpace=wrap;html=1;" vertex="1" parent="1">
          <mxGeometry x="800" y="40" width="120" height="80" as="geometry" />
        </mxCell>
        <mxCell id="YFT1d2Bk_ttAh_a-eo_Q-33" value="" style="endArrow=classic;html=1;rounded=0;entryX=0.5;entryY=1;entryDx=0;entryDy=0;" edge="1" parent="1" target="YFT1d2Bk_ttAh_a-eo_Q-32">
          <mxGeometry width="50" height="50" relative="1" as="geometry">
            <mxPoint x="740" y="200" as="sourcePoint" />
            <mxPoint x="860" y="200" as="targetPoint" />
            <Array as="points">
              <mxPoint x="860" y="200" />
            </Array>
          </mxGeometry>
        </mxCell>
      </root>
    </mxGraphModel>
  </diagram>
</mxfile>
